<svg width="40" height="40" viewBox="0 0 40 40" fill="none" xmlns="http://www.w3.org/2000/svg">
<g opacity="0.4" filter="url(#filter0_i_2314_31476)">
<path d="M20 40C31.0457 40 40 31.0457 40 20C40 8.9543 31.0457 0 20 0C8.9543 0 0 8.9543 0 20C0 31.0457 8.9543 40 20 40Z" fill="#C7E6D7"/>
</g>
<path d="M17.7087 9.2306C15.8361 9.62893 14.0999 10.509 12.6716 11.7837C11.2433 13.0585 10.1723 14.6839 9.56443 16.4993C8.95659 18.3147 8.83294 20.2572 9.2057 22.135C9.57845 24.0129 10.4347 25.7609 11.6899 27.2065C11.8394 27.3863 11.9278 27.609 11.9423 27.8423C11.9568 28.0757 11.8966 28.3076 11.7704 28.5045L11.2648 29.3191C11.1615 29.4857 11.1045 29.6769 11.0998 29.8729C11.0951 30.0689 11.1429 30.2626 11.2382 30.4339C11.3335 30.6052 11.4729 30.748 11.6419 30.8473C11.8109 30.9467 12.0034 30.9991 12.1994 30.9991H19.684C22.5275 31.0298 25.2764 29.9787 27.3739 28.0585C29.4713 26.1384 30.7607 23.4928 30.9806 20.6577C31.0812 18.966 30.7899 17.2738 30.1294 15.7131C29.469 14.1523 28.4573 12.765 27.173 11.6592C25.8887 10.5535 24.3665 9.75903 22.7249 9.33779C21.0834 8.91655 19.3667 8.87986 17.7087 9.2306ZM16.9999 21.9991C16.9999 22.2644 16.8946 22.5187 16.707 22.7063C16.5195 22.8938 16.2652 22.9991 15.9999 22.9991C15.7347 22.9991 15.4804 22.8938 15.2928 22.7063C15.1053 22.5187 14.9999 22.2644 14.9999 21.9991V17.9991C14.9999 17.7339 15.1053 17.4796 15.2928 17.292C15.4804 17.1045 15.7347 16.9991 15.9999 16.9991C16.2652 16.9991 16.5195 17.1045 16.707 17.292C16.8946 17.4796 16.9999 17.7339 16.9999 17.9991V21.9991ZM20.9999 23.9991C20.9999 24.2644 20.8946 24.5187 20.707 24.7063C20.5195 24.8938 20.2652 24.9991 19.9999 24.9991C19.7347 24.9991 19.4804 24.8938 19.2928 24.7063C19.1053 24.5187 18.9999 24.2644 18.9999 23.9991V15.9991C18.9999 15.7339 19.1053 15.4796 19.2928 15.292C19.4804 15.1045 19.7347 14.9991 19.9999 14.9991C20.2652 14.9991 20.5195 15.1045 20.707 15.292C20.8946 15.4796 20.9999 15.7339 20.9999 15.9991V23.9991ZM24.9999 21.9991C24.9999 22.2644 24.8946 22.5187 24.707 22.7063C24.5195 22.8938 24.2652 22.9991 23.9999 22.9991C23.7347 22.9991 23.4804 22.8938 23.2928 22.7063C23.1053 22.5187 22.9999 22.2644 22.9999 21.9991V17.9991C22.9999 17.7339 23.1053 17.4796 23.2928 17.292C23.4804 17.1045 23.7347 16.9991 23.9999 16.9991C24.2652 16.9991 24.5195 17.1045 24.707 17.292C24.8946 17.4796 24.9999 17.7339 24.9999 17.9991V21.9991Z" fill="#19FB9B"/>
<defs>
<filter id="filter0_i_2314_31476" x="0" y="0" width="40" height="44" filterUnits="userSpaceOnUse" color-interpolation-filters="sRGB">
<feFlood flood-opacity="0" result="BackgroundImageFix"/>
<feBlend mode="normal" in="SourceGraphic" in2="BackgroundImageFix" result="shape"/>
<feColorMatrix in="SourceAlpha" type="matrix" values="0 0 0 0 0 0 0 0 0 0 0 0 0 0 0 0 0 0 127 0" result="hardAlpha"/>
<feOffset dy="4"/>
<feGaussianBlur stdDeviation="2"/>
<feComposite in2="hardAlpha" operator="arithmetic" k2="-1" k3="1"/>
<feColorMatrix type="matrix" values="0 0 0 0 0.324683 0 0 0 0 0.689724 0 0 0 0 0.805 0 0 0 0.25 0"/>
<feBlend mode="normal" in2="shape" result="effect1_innerShadow_2314_31476"/>
</filter>
</defs>
</svg>
