<svg xmlns="http://www.w3.org/2000/svg" width="25" height="25" viewBox="0 0 25 25" fill="none">
<g clip-path="url(#clip0_49_500)">
<path d="M12.5 25C9.3209 24.9966 6.26923 23.7325 4.02009 21.48C1.77095 19.2274 0.503444 16.1688 0.5 12.9828C0.503444 9.79339 1.77095 6.73828 4.02009 4.48569C6.26923 2.23311 9.3209 0.965603 12.5 0.962158C15.6791 0.965603 18.7308 2.23311 20.9799 4.48569C23.229 6.73828 24.4966 9.79339 24.5 12.9828C24.4966 16.1723 23.229 19.2274 20.9799 21.48C18.7308 23.7325 15.6791 25 12.5 25ZM12.5 1.88868C9.56544 1.89212 6.75144 3.05975 4.67451 5.14011C2.59759 7.21704 1.42652 10.0379 1.42308 12.9828C1.42652 15.9243 2.59414 18.7486 4.67107 20.829C6.74799 22.9093 9.562 24.077 12.5 24.077C15.4346 24.077 18.252 22.9093 20.3289 20.829C22.4059 18.7452 23.5735 15.9243 23.5769 12.9828C23.5735 10.0414 22.4024 7.22048 20.3289 5.14011C18.2486 3.05975 15.4346 1.88868 12.5 1.88868Z" fill="#8C8CA6"/>
<path d="M14.0154 23.0989C11.3805 23.0954 8.85585 22.0484 6.99247 20.1815C5.1291 18.3147 4.07858 15.7831 4.07513 13.1414C4.07858 10.4996 5.1291 7.96799 6.99247 6.10117C8.85585 4.23435 11.3805 3.18384 14.0154 3.18384C16.6503 3.18728 19.175 4.23435 21.0384 6.10117C22.9018 7.96799 23.9523 10.4996 23.9557 13.1414C23.9523 15.7831 22.9018 18.3147 21.0384 20.1815C19.1785 22.0484 16.6503 23.0989 14.0154 23.0989ZM14.0154 3.90026C11.57 3.9037 9.22783 4.875 7.49878 6.60749C5.76974 8.33998 4.79844 10.689 4.79155 13.1379C4.795 15.5868 5.76974 17.9358 7.49878 19.6683C9.22783 21.4008 11.57 22.3721 14.0154 22.3756C16.4609 22.3721 18.803 21.4008 20.5321 19.6683C22.2611 17.9358 23.2359 15.5868 23.2393 13.1379C23.2359 10.689 22.2611 8.33998 20.5321 6.60749C18.803 4.87844 16.4609 3.9037 14.0154 3.90026Z" fill="#8C8CA6"/>
<path d="M15.5344 21.1975C13.4437 21.1975 11.4426 20.364 9.96495 18.8829C8.48733 17.4019 7.65381 15.3938 7.65381 13.2997C7.65725 11.2055 8.48733 9.19749 9.96495 7.71644C11.4426 6.23538 13.4472 5.4053 15.5344 5.40186C17.6251 5.40186 19.6263 6.23538 21.1039 7.71644C22.5815 9.19749 23.4116 11.2055 23.415 13.2997C23.4116 15.3938 22.5815 17.4019 21.1039 18.8829C19.6263 20.364 17.6217 21.1975 15.5344 21.1975ZM15.5344 5.92195C13.5815 5.92195 11.7078 6.70036 10.3266 8.08498C8.94543 9.46959 8.16701 11.3467 8.16357 13.3031C8.16701 15.2595 8.94543 17.1366 10.3266 18.5213C11.7078 19.9059 13.5815 20.6843 15.5344 20.6843C17.4873 20.6843 19.361 19.9059 20.7422 18.5213C22.1234 17.1366 22.9018 15.2595 22.9052 13.3031C22.9018 11.3433 22.1234 9.46615 20.7422 8.08498C19.3576 6.70036 17.4873 5.92195 15.5344 5.92195Z" fill="#8C8CA6"/>
<path d="M17.0499 19.2963C15.5069 19.2963 14.0258 18.6798 12.934 17.5879C11.8421 16.4926 11.229 15.0116 11.2256 13.4651C11.229 11.9186 11.8421 10.4341 12.934 9.33878C14.0258 8.24349 15.5069 7.6304 17.0499 7.62695C18.593 7.62695 20.074 8.24349 21.1659 9.33878C22.2577 10.4341 22.8708 11.9151 22.8743 13.4651C22.8708 15.0116 22.2577 16.4961 21.1659 17.5879C20.074 18.6798 18.593 19.2963 17.0499 19.2963ZM17.0499 7.93694C15.5861 7.93694 14.1843 8.52248 13.151 9.55577C12.1177 10.5925 11.5356 11.9978 11.5321 13.4616C11.5356 14.9289 12.1177 16.3307 13.151 17.3675C14.1843 18.4042 15.5861 18.9863 17.0499 18.9863C18.5103 18.9863 19.9122 18.4042 20.9489 17.3675C21.9822 16.3307 22.5643 14.9255 22.5677 13.4616C22.5643 11.9943 21.9822 10.5891 20.9489 9.55577C19.9156 8.51903 18.5138 7.93694 17.0499 7.93694Z" fill="#8C8CA6"/>
</g>
<defs>
<clipPath id="clip0_49_500">
<rect width="24" height="24.0379" fill="white" transform="translate(0.5 0.962158)"/>
</clipPath>
</defs>
</svg>