<svg width="40" height="40" viewBox="0 0 40 40" fill="none" xmlns="http://www.w3.org/2000/svg">
<g id="icon chat">
<path id="Vector" d="M33.5599 34.7009C29.9999 37.9809 25.2399 40.0009 19.9999 40.0009C14.7599 40.0009 9.99994 37.9809 6.43994 34.7009C6.91994 32.8809 8.21994 31.2209 10.1199 29.9409C15.5799 26.3009 24.4599 26.3009 29.8799 29.9409C31.7999 31.2209 33.0799 32.8809 33.5599 34.7009Z" fill="url(#paint0_radial_2314_31466)"/>
<path id="Vector_2" d="M20 9.85938C15.86 9.85938 12.5 13.2194 12.5 17.3594C12.5 21.4194 15.68 24.7194 19.9 24.8394C19.96 24.8394 20.04 24.8394 20.08 24.8394C20.12 24.8394 20.18 24.8394 20.22 24.8394C20.24 24.8394 20.26 24.8394 20.26 24.8394C24.3 24.6994 27.48 21.4194 27.5 17.3594C27.5 13.2194 24.14 9.85938 20 9.85938Z" fill="url(#paint1_radial_2314_31466)"/>
<g id="Vector_3" opacity="0.4" filter="url(#filter0_i_2314_31466)">
<path d="M20 40C31.0457 40 40 31.0457 40 20C40 8.9543 31.0457 0 20 0C8.9543 0 0 8.9543 0 20C0 31.0457 8.9543 40 20 40Z" fill="#C8E6C7"/>
</g>
</g>
<defs>
<filter id="filter0_i_2314_31466" x="0" y="0" width="40" height="44" filterUnits="userSpaceOnUse" color-interpolation-filters="sRGB">
<feFlood flood-opacity="0" result="BackgroundImageFix"/>
<feBlend mode="normal" in="SourceGraphic" in2="BackgroundImageFix" result="shape"/>
<feColorMatrix in="SourceAlpha" type="matrix" values="0 0 0 0 0 0 0 0 0 0 0 0 0 0 0 0 0 0 127 0" result="hardAlpha"/>
<feOffset dy="4"/>
<feGaussianBlur stdDeviation="2"/>
<feComposite in2="hardAlpha" operator="arithmetic" k2="-1" k3="1"/>
<feColorMatrix type="matrix" values="0 0 0 0 0.324683 0 0 0 0 0.689724 0 0 0 0 0.805 0 0 0 0.25 0"/>
<feBlend mode="normal" in2="shape" result="effect1_innerShadow_2314_31466"/>
</filter>
<radialGradient id="paint0_radial_2314_31466" cx="0" cy="0" r="1" gradientUnits="userSpaceOnUse" gradientTransform="translate(15.2717 27.2109) rotate(72.6904) scale(15.8913 33.8736)">
<stop stop-color="#C2FFC4"/>
<stop offset="1" stop-color="#57F3BA"/>
</radialGradient>
<radialGradient id="paint1_radial_2314_31466" cx="0" cy="0" r="1" gradientUnits="userSpaceOnUse" gradientTransform="translate(17.3848 9.85938) rotate(81.6277) scale(17.9609 19.415)">
<stop stop-color="#C2FFC4"/>
<stop offset="1" stop-color="#57F3BA"/>
</radialGradient>
</defs>
</svg>
