<svg xmlns="http://www.w3.org/2000/svg" width="32" height="32" viewBox="0 0 32 32" fill="none">
<path d="M12.945 1.64194C10.4483 2.17306 8.1333 3.34643 6.22887 5.04611C4.32444 6.7458 2.89645 8.91297 2.08599 11.3335C1.27554 13.754 1.11067 16.3441 1.60768 18.8479C2.10469 21.3516 3.24637 23.6824 4.91992 25.6098C5.11926 25.8495 5.23713 26.1464 5.25644 26.4576C5.27575 26.7687 5.19552 27.078 5.02735 27.3405L4.35319 28.4267C4.21536 28.6488 4.1394 28.9037 4.13316 29.165C4.12692 29.4263 4.19064 29.6846 4.31771 29.913C4.44479 30.1414 4.6306 30.3318 4.85592 30.4643C5.08124 30.5968 5.33788 30.6667 5.59928 30.6667H15.5788C19.3701 30.7076 23.0352 29.306 25.8319 26.7458C28.6285 24.1857 30.3476 20.6583 30.6409 16.8781C30.775 14.6224 30.3866 12.3662 29.506 10.2852C28.6254 8.20421 27.2764 6.35451 25.564 4.88014C23.8516 3.40577 21.8221 2.34652 19.6333 1.78487C17.4446 1.22321 15.1557 1.1743 12.945 1.64194Z" fill="url(#paint0_linear_32_182)"/>
<path d="M16.9433 22.2766C17.1933 22.0266 17.3338 21.6875 17.3338 21.3338V10.6672C17.3338 10.3135 17.1933 9.97441 16.9433 9.72436C16.6932 9.47431 16.3541 9.33383 16.0004 9.33383C15.6468 9.33383 15.3077 9.47431 15.0576 9.72436C14.8076 9.97441 14.6671 10.3135 14.6671 10.6672V21.3338C14.6671 21.6875 14.8076 22.0266 15.0576 22.2766C15.3077 22.5267 15.6468 22.6672 16.0004 22.6672C16.3541 22.6672 16.6932 22.5267 16.9433 22.2766Z" fill="#FCFCFC"/>
<path d="M22.2759 19.6103C22.5259 19.3603 22.6664 19.0211 22.6664 18.6675V13.3342C22.6664 12.9805 22.5259 12.6414 22.2759 12.3913C22.0259 12.1413 21.6867 12.0008 21.3331 12.0008C20.9795 12.0008 20.6403 12.1413 20.3903 12.3913C20.1402 12.6414 19.9998 12.9805 19.9998 13.3342V18.6675C19.9998 19.0211 20.1402 19.3603 20.3903 19.6103C20.6403 19.8603 20.9795 20.0008 21.3331 20.0008C21.6867 20.0008 22.0259 19.8603 22.2759 19.6103Z" fill="white"/>
<path d="M11.6099 19.6103C11.8599 19.3603 12.0004 19.0211 12.0004 18.6675V13.3342C12.0004 12.9805 11.8599 12.6414 11.6099 12.3913C11.3598 12.1413 11.0207 12.0008 10.6671 12.0008C10.3135 12.0008 9.97431 12.1413 9.72427 12.3913C9.47422 12.6414 9.33374 12.9805 9.33374 13.3342V18.6675C9.33374 19.0211 9.47422 19.3603 9.72427 19.6103C9.97431 19.8603 10.3135 20.0008 10.6671 20.0008C11.0207 20.0008 11.3598 19.8603 11.6099 19.6103Z" fill="white"/>
<circle cx="26" cy="16" r="1.335" fill="white"/>
<circle cx="6.335" cy="16" r="1.335" fill="white"/>
<defs>
<linearGradient id="paint0_linear_32_182" x1="5.49976" y1="4.99985" x2="25.376" y2="27.67" gradientUnits="userSpaceOnUse">
<stop stop-color="#19FB9B"/>
<stop offset="1" stop-color="#5960F7"/>
</linearGradient>
</defs>
</svg>